<svg width="6" height="12" viewBox="0 0 6 12" fill="none" xmlns="http://www.w3.org/2000/svg">
<path d="M5.5316 7.11796L5.8376 5.15096H3.9246V3.87296C3.9124 3.72493 3.93363 3.57604 3.98672 3.43732C4.03981 3.2986 4.1234 3.17359 4.23132 3.07153C4.33924 2.96947 4.46871 2.89297 4.61018 2.84769C4.75165 2.80242 4.90148 2.78952 5.0486 2.80996H5.9186V1.13396C5.40781 1.05253 4.8918 1.00808 4.3746 1.00096C4.02114 0.971627 3.66556 1.02041 3.33305 1.14386C3.00055 1.2673 2.69928 1.46238 2.4506 1.71526C2.20191 1.96815 2.0119 2.27265 1.89404 2.60717C1.77618 2.94169 1.73336 3.29804 1.7686 3.65096V5.15096H0.0166016V7.11896H1.7686V11.877H3.9246V7.11796H5.5316Z" fill="white"/>
</svg>
