<svg width="48" height="48" viewBox="0 0 48 48" fill="none" xmlns="http://www.w3.org/2000/svg">
<rect x="0.5" y="0.5" width="47" height="47" rx="1.5" fill="#EEEEEE" stroke="#DDDDDD"/>
<path d="M29.1877 18.7617C28.1051 17.0325 26.1656 16 23.9998 16C21.8341 16 19.8944 17.0325 18.812 18.7617C17.7293 20.4908 17.7293 22.556 18.812 24.2857L23.4634 31.7143C23.5738 31.8915 23.7789 32 24.0001 32C24.2212 32 24.4264 31.8915 24.5367 31.7143L29.1881 24.2857C30.2706 22.5566 30.2706 20.4914 29.1881 18.7617H29.1877ZM28.1144 23.7143L23.9998 30.2857L19.8852 23.7143C19.0263 22.3428 19.0263 20.7051 19.8852 19.3332C20.744 17.9611 22.2826 17.1429 23.9998 17.1429C25.7169 17.1429 27.2555 17.9617 28.1144 19.3332C28.9732 20.7046 28.9726 22.3429 28.1144 23.7143Z" fill="black"/>
<path d="M23.9993 18.7227C22.3249 18.7227 20.9629 19.9787 20.9629 21.5227C20.9629 23.0667 22.3249 24.3227 23.9993 24.3227C25.6736 24.3227 27.0357 23.0667 27.0357 21.5227C27.0357 19.9787 25.6736 18.7227 23.9993 18.7227ZM23.9993 23.1798C23.0078 23.1798 22.2022 22.4364 22.2022 21.5227C22.2022 20.6089 23.0084 19.8655 23.9993 19.8655C24.9902 19.8655 25.7963 20.6089 25.7963 21.5227C25.7963 22.4364 24.9907 23.1798 23.9993 23.1798Z" fill="black"/>
</svg>
