<svg id="Group_2" data-name="Group 2" xmlns="http://www.w3.org/2000/svg" width="138.458" height="43.261" viewBox="0 0 138.458 43.261">
  <path id="Path_1" data-name="Path 1" d="M1709.985,1047.5c.124.189.032.342-.2.342h-4.538a.866.866,0,0,1-.65-.342l-2.954-4.515v0c-.624-.945-1.093,0-1.093,0v-.023l-2.963,4.532a.862.862,0,0,1-.65.342H1692.4c-.236,0-.327-.153-.2-.342l5.85-8.95h-.028a.736.736,0,0,0,.227-.752l-.217-.331-.011-.009h0l-5.1-7.788c-.123-.188-.032-.342.2-.342h4.538a.863.863,0,0,1,.65.342l2.227,3.4v-.055c.625.928,1.093,0,1.093,0v.035l2.211-3.383a.864.864,0,0,1,.65-.342h4.532c.236,0,.328.153.205.342l-5.388,8.241a.616.616,0,0,0,0,.212Zm-20.445.342h-3.622a.341.341,0,0,1-.342-.342v-17.83a.342.342,0,0,1,.342-.342h3.622a.342.342,0,0,1,.341.342v17.83a.342.342,0,0,1-.342.343Zm0-21.041h-3.622a.342.342,0,0,1-.342-.342V1022.9a.342.342,0,0,1,.342-.341h3.622a.342.342,0,0,1,.342.341v3.552a.342.342,0,0,1-.342.342Zm-6.7,11.067v9.632a.342.342,0,0,1-.342.342h-3.622a.342.342,0,0,1-.342-.342v-10.509c0-.342.112-2.3-.684-2.942a5.124,5.124,0,0,0-3.007-.7v.006h-.165l-.109.007v-.007h-2.6c-.886,0-1.435.547-1.435,1.981v12.16a.342.342,0,0,1-.342.342h-3.622a.341.341,0,0,1-.341-.342v-14.961c0-.887.034-3.21,3.212-3.21h5.4c8.128.09,8,4.163,8,5.4Zm-26.722,9.957v.017c-.151,0-.3,0-.444,0s-.3,0-.444,0v-.017c-7.5-.284-7.381-4.173-7.381-5.377v-12.775a.342.342,0,0,1,.342-.342h3.622a.342.342,0,0,1,.342.342v10.518c0,.342-.248,2.281.616,2.8a5.462,5.462,0,0,0,2.46.558v-.018s.307.024.753.014c.087,0,.136-.008.136-.008v0a5.3,5.3,0,0,0,2.392-.557c.863-.52.684-2.463.684-2.805v-10.508a.341.341,0,0,1,.341-.342h3.622a.342.342,0,0,1,.341.342v12.766c0,1.205.129,5.105-7.375,5.389Zm-10.73-.188h-3.827c-4.169,0-3.759-2.8-3.759-3.689v-9.755c-.023-.206-.145-.424-.683-.424h-1.5a.342.342,0,0,1-.341-.342v-3.62a.342.342,0,0,1,.342-.342h1.5c.538,0,.66-.218.683-.424v-4.358a.342.342,0,0,1,.342-.342h3.622a.343.343,0,0,1,.343.342v4.56c.082.125.256.222.615.222h2.6a.343.343,0,0,1,.342.341v3.62a.342.342,0,0,1-.342.342h-2.6c-.359,0-.532.1-.615.222v8.917c.023.206.145.424.683.424h2.6a.342.342,0,0,1,.342.341v3.62a.342.342,0,0,1-.337.341Z" transform="translate(-1571.583 -1011.068)" fill="#fafafa" fill-rule="evenodd"/>
  <path id="Shape_7_copy" data-name="Shape 7 copy" d="M323.126,812.679h-2.733c-.532,0-.752-.069-.752,1.025v4.508c0,.5.136,1.025-.886,1.025h-2.53c-.409,0-.752.068-.752-.683V795.4c0-1.213.236-1.025.957-1.025h8.133c1.606,0,7.039.717,7.039,8.2S328.412,812.679,323.126,812.679Zm1.3-14.073h-4.511a.341.341,0,0,0-.341.341v9.086a.342.342,0,0,0,.341.342h3.622c3.053,0,4.032-2.027,4.032-5.4s-2.164-4.371-3.144-4.371Zm-19.478,14.073h-2.734c-.532,0-.752-.069-.752,1.025v4.508c0,.5.137,1.025-.886,1.025h-2.528c-.41,0-.752.068-.752-.683V795.4c0-1.213.236-1.025.957-1.025h8.132c1.606,0,7.039.717,7.039,8.2S310.233,812.679,304.948,812.679Zm1.3-14.073h-4.513a.341.341,0,0,0-.342.341v9.086a.342.342,0,0,0,.342.342h3.622c3.053,0,4.032-2.027,4.032-5.4s-2.164-4.371-3.144-4.371Zm-11.84,13.937h-3.48c-.99,0-1.041-.118-1.229-.684s-1.382-4.441-1.638-5.192-.427-.752-1.092-.752h-7.308c-.667,0-.837,0-1.093.752s-1.452,4.628-1.64,5.192-.236.684-1.23.684h-3.486c-.768,0-.785-.124-.615-.615.444-1.23,6.595-21.109,7.108-22.339.5-1.207.877-2.084,4.51-2.116h.205c3.628.032,4,.909,4.5,2.116.512,1.23,6.654,21.109,7.1,22.339C295.191,812.419,295.177,812.543,294.409,812.543Zm-8.258-12.229c-.118-.478-2.229-7.139-2.457-7.859a.891.891,0,0,0-.272-.482v0a.158.158,0,0,0-.074-.035h-.056a.159.159,0,0,0-.074.035v0a.885.885,0,0,0-.273.482c-.228.717-2.341,7.378-2.461,7.859s-.188.752.41.752h4.848c.6,0,.528-.274.408-.752ZM277,787.95a69.834,69.834,0,0,0-4.767,12.527c-1.953,7.018-3.23,13.982-3.23,13.982s2.6-14.483,4.032-20.836,4.852-15.508,8.065-17.147,5.809.752,8.68,7.583a106.732,106.732,0,0,1,4.786,15.508c-3.936-14.807-11.469-23.147-17.567-11.616Z" transform="translate(-269 -775.978)" fill="#fafafa" fill-rule="evenodd"/>
</svg>
